# xmcd CD database file
#
# Track frame offsets:
#	150
#	17537
#	37442
#	51772
#	65120
#	76602
#	93255
#	104377
#	122547
#	147252
#	159157
#
# Disc length: 2306 seconds
#
# Revision: 0
# Processed by: cddbd v1.5.1PL0 Copyright (c) Steve Scherf et al.
# Submitted via: CDex 1.51
#
DISCID=8809000b
DTITLE=THE JERRY LEE PHANTOM - SURF RIDE MONSTAR '99
DYEAR=1999
DGENRE=Rock
TTITLE0=MONSTAR
TTITLE1=STARMAN
TTITLE2=彼女のスカート
TTITLE3=PUNK THE DISCO-high-
TTITLE4=SCHOOL BABY BUS
TTITLE5=MONKEY-7
TTITLE6=キコエル
TTITLE7=BRAND NEW BLACK STAR
TTITLE8=GANGWAY
TTITLE9=(that's really)BOSS!
TTITLE10=世界に告ぐ '99
EXTD=YEAR: 1999
EXTT0=
EXTT1=
EXTT2=
EXTT3=
EXTT4=
EXTT5=
EXTT6=
EXTT7=
EXTT8=
EXTT9=
EXTT10=
PLAYORDER=
